# xmcd CD database file
#
# Track frame offsets:
#	150
#	17700
#	32437
#	47737
#	66637
#	82237
#	99862
#	113475
#	129825
#	151022
#	166275
#	181462
#
# Disc length: 2704 seconds
#
# Revision: 0
# Processed by: cddbd v1.4b42PL1 Copyright (c) Steve Scherf et al.
# Submitted via: CDex 1.40Beta8
#
DISCID=8d0a8e0c
DTITLE=Les Samou - Fall From Grace
DYEAR=1996
DGENRE=Blues
TTITLE0=Holy Land
TTITLE1=Alibis
TTITLE2=Things I should have done
TTITLE3=Home again
TTITLE4=Ride the line
TTITLE5=Flesh and Blood
TTITLE6=Weather Vane
TTITLE7=I already know
TTITLE8=String of pearls
TTITLE9=Fall from grace
TTITLE10=Bull's eye]
TTITLE11=Two strong arms
EXTD=YEAR: 1996 ID3G: 0
EXTT0=
EXTT1=
EXTT2=
EXTT3=
EXTT4=
EXTT5=
EXTT6=
EXTT7=
EXTT8=
EXTT9=
EXTT10=
EXTT11=
PLAYORDER=
